inDegrees=no
num_controls=7
num_derivatives=13
num_iterations=197
num_multipliers=7
num_parameters=0
num_slacks=7
num_states=26
objective=5.884844
objective_accelerations=0.701501
objective_balance=0.111954
objective_effort=0.485654
objective_height=4.524237
objective_ligament=0.061498
solver_duration=2438.941582
status=Solve_Succeeded
success=true
DataType=double
version=3
OpenSimVersion=4.4-2022-07-23-0e9fedc
endheader
time	/jointset/ground_pelvis/pelvis_tilt/value	/jointset/ground_pelvis/pelvis_tx/value	/jointset/ground_pelvis/pelvis_ty/value	/jointset/hip_l/hip_flexion_l/value	/jointset/hip_l/hip_adduction_l/value	/jointset/hip_l/hip_rotation_l/value	/jointset/back/lumbar_extension/value	/jointset/patellofemoral_l/patellar_flexion_l/value	/jointset/knee_l/knee_flexion_l/value	/jointset/knee_l/knee_adduction_l/value	/jointset/knee_l/knee_rotation_l/value	/jointset/ankle_l/ankle_angle_l/value	/jointset/subtalar_l/subtalar_angle_l/value	/jointset/ground_pelvis/pelvis_tilt/speed	/jointset/ground_pelvis/pelvis_tx/speed	/jointset/ground_pelvis/pelvis_ty/speed	/jointset/hip_l/hip_flexion_l/speed	/jointset/hip_l/hip_adduction_l/speed	/jointset/hip_l/hip_rotation_l/speed	/jointset/back/lumbar_extension/speed	/jointset/patellofemoral_l/patellar_flexion_l/speed	/jointset/knee_l/knee_flexion_l/speed	/jointset/knee_l/knee_adduction_l/speed	/jointset/knee_l/knee_rotation_l/speed	/jointset/ankle_l/ankle_angle_l/speed	/jointset/subtalar_l/subtalar_angle_l/speed	/forceset/tau_hip_flexion_l	/forceset/tau_hip_adduction_l	/forceset/tau_hip_rotation_l	/forceset/tau_knee_flexion_l	/forceset/tau_ankle_angle_l	/forceset/tau_subtalar_angle_l	/forceset/tau_lumbar_extension	lambda_cid13_p0	lambda_cid13_p1	lambda_cid13_p2	lambda_cid13_p3	lambda_cid13_p4	lambda_cid13_p5	lambda_cid14_p0	/jointset/ground_pelvis/pelvis_tilt/accel	/jointset/ground_pelvis/pelvis_tx/accel	/jointset/ground_pelvis/pelvis_ty/accel	/jointset/hip_l/hip_flexion_l/accel	/jointset/hip_l/hip_adduction_l/accel	/jointset/hip_l/hip_rotation_l/accel	/jointset/back/lumbar_extension/accel	/jointset/patellofemoral_l/patellar_flexion_l/accel	/jointset/knee_l/knee_flexion_l/accel	/jointset/knee_l/knee_adduction_l/accel	/jointset/knee_l/knee_rotation_l/accel	/jointset/ankle_l/ankle_angle_l/accel	/jointset/subtalar_l/subtalar_angle_l/accel	gamma_cid13_p0	gamma_cid13_p1	gamma_cid13_p2	gamma_cid13_p3	gamma_cid13_p4	gamma_cid13_p5	gamma_cid14_p0
1.5	-0.4994281693943279	-0.08841549341182149	0.7479912769612983	1.355360542709582	-0.3110714395417997	-0.04054708459226397	-0.3544409816776558	0.7092371971244348	0.7092371971244036	-0.1736678679964296	0.1745282630743089	0.01891701990497351	-0.05425718178442276	0.8633923771608079	0.2839045274014104	0.5378579775284905	-2.555180158444049	0.02925150866122938	-0.625279121027404	0.5544567080179764	-1.794230423217666	-1.794230423217615	0.00522002988670783	-3.445974886032288e-05	-0.1968887832976854	0.01133462471754263	-0.2798640387627541	0.01719531778543298	-0.01926622990991837	-0.1862666584231534	0.1409969094665365	0.04735714887298555	0.2437739089933778	6.424749530208005	-24.05834145665798	6.135913455000752	-6.612492923521487	-611.3142680080437	-59.21667559846625	-27.12326859790264	0.7611512624604192	0.7828136919762163	-0.2811494219834974	-1.771146008933446	0.6205284637974865	-0.3219231581361291	1.942420649926799	-1.155411656091807	-1.1554116560918	0.05674628440548737	-0.007223622618305457	-0.0845208681302191	0.6072470614319352	3.157405974263708e-07	7.531769508666285e-07	-1.581022094234232e-06	-1.030113768702464e-07	4.043352600552383e-07	-2.091666896455045e-07	3.457817453069212e-07
1.51	-0.4907565485063282	-0.08553747562429838	0.7533547837173568	1.329722276937213	-0.3107493167754562	-0.04681455022792614	-0.3488008345057213	0.6912391570663795	0.6912391570663654	-0.1736161095569782	0.1745282553354546	0.01694391011209997	-0.05411498899948497	0.8708106073485899	0.2916717042929914	0.5347352766164973	-2.572128121624739	0.03517779059671868	-0.6281075654793953	0.5735077300031918	-1.805130772142417	-1.805130772142359	0.005104751405461786	1.319418115335477e-05	-0.197684218335818	0.01711033485558504	-0.2708230467946082	0.01652606988054095	-0.01915794063517405	-0.1853141806491362	0.1409861210155383	0.04668923681854237	0.2369368934076554	6.694266320144465	-23.92690173625761	6.242253903211352	-6.604282167650549	-606.2826265299173	-59.54608419532584	-28.17456993647213	0.7140188799148998	0.7695650285489298	-0.3439661852328693	-1.604842946512967	0.5794382746854548	-0.2470266494411622	1.876693517932731	-1.020391096266315	-1.020391096265188	-0.04959468805383555	0.008119623790712181	-0.0697079685901936	0.5636985662633723	2.842532521914652e-07	8.935500387030097e-07	-1.431013887262907e-06	-5.412331165478746e-08	3.975158685981539e-07	-1.556201359385749e-07	3.387424852743469e-07
1.52	-0.4820143733198567	-0.08258260699969951	0.7586838363124102	1.30392488723826	-0.3103677791465055	-0.05310704462024934	-0.3429721270049121	0.6731395046019567	0.6731395046019603	-0.1735662898570742	0.1745281960804916	0.01496431533945815	-0.05391484599791217	0.8775032368554866	0.2992746948165618	0.5309671453274737	-2.587004943760477	0.04113448118263954	-0.6302848723598075	0.5921687737929622	-1.814552904491151	-1.814552904491085	0.004832281977649074	-4.476296965289613e-05	-0.1981857792513675	0.02292466804454704	-0.261782054826461	0.01585682197565219	-0.01904965136044637	-0.1843617028751159	0.1409753325645414	0.04602132476410282	0.2300998778219331	6.95806633407098	-23.79824000375282	6.353354456124876	-6.599557865936721	-601.3526366949715	-59.95545936232075	-29.21297075855502	0.6160311262833238	0.7499764183741123	-0.410235497389613	-1.356917799942897	0.6266101938837982	-0.1916956438202846	1.864425010837798	-0.8597683408883204	-0.8597683408883199	0.02530809509214979	-0.02834583878228347	-0.02574604361359411	0.6149716716158521	2.188813097394441e-07	1.073738815791008e-06	-1.124136108706595e-06	1.888735613634106e-08	3.702962783687357e-07	-9.212610668904635e-08	3.109374585944952e-07
1.53	-0.4732089311997323	-0.07955262323802767	0.7639720076947304	1.277989291503097	-0.3099263052831637	-0.05941968320212327	-0.336958943342643	0.6549534360164464	0.6549534360164568	-0.1735185971514886	0.1745281959867197	0.01298131362137658	-0.05365611294206527	0.8834587050542667	0.3066843434551759	0.5265620343313231	-2.599751948456861	0.04716111954254258	-0.6321419086200727	0.6103847150240884	-1.822400914845103	-1.822400914845081	0.004686040339755592	3.197033539336849e-05	-0.1983651934197848	0.02882453564566835	-0.2526595741323934	0.01502926421860864	-0.01895731417220722	-0.1833638473602716	0.1408690026117101	0.04519779897170821	0.2231258980607626	7.186958701743105	-23.59745041130435	6.454745599858247	-6.509932998454341	-596.3945227943127	-60.24727268828783	-30.23182339160164	0.5663510009163965	0.7308360444707026	-0.4713543764088277	-1.179229988882516	0.5906770232347752	-0.1673233853869952	1.787692133703718	-0.7083795920623277	-0.7083795920688015	-0.03738713936662508	0.02392266986529894	-0.006619035457426374	0.577706851735844	1.17506982744238e-07	1.296231762708848e-06	-6.505844103412366e-07	1.175282891641182e-07	3.21401476943713e-07	-1.806288467550643e-08	2.610688048519112e-07
1.54	-0.4643477251307736	-0.07644966759839658	0.7692129868719529	1.25193709808409	-0.3094245677629845	-0.06574781530024976	-0.3307660975771721	0.6366966748855125	0.6366966748855322	-0.173472926231508	0.1745286111769407	0.01099800177521068	-0.05333833870073206	0.8886560266226922	0.3138690704084096	0.521528704307928	-2.610324480529099	0.05318721255009333	-0.6333835756106314	0.628101194433364	-1.828691413575601	-1.828691413575622	0.004427924856401724	3.829382912762395e-05	-0.1982478048682671	0.03473290514181315	-0.2435370934383214	0.01420170646157034	-0.01886497698395679	-0.1823659918454278	0.1407626726588803	0.04437427317931913	0.216151918299595	7.408296258594745	-23.39791319695043	6.559278020085085	-6.403724618631168	-591.555554914944	-60.59964334808625	-31.2266450481922	0.4644018002123753	0.7049920812980541	-0.5358793028385225	-0.9220232751136533	0.6265011234133401	-0.06862178987892634	1.764532646467659	-0.5482660161974147	-0.5482660161974213	0.002933326000070135	-0.04242780104468654	0.0336145003734288	0.6166720506205549	5.823210722278276e-08	1.448177399544332e-06	-3.869797972953066e-07	1.755465115733663e-07	2.999283176850673e-07	3.424987802676263e-08	2.348174155714023e-07
